<?xml version="1.0" encoding="UTF-8"?>
<svg version="1.1" xmlns="http://www.w3.org/2000/svg" width="132" height="146">
<path d="M0 0 C43.56 0 87.12 0 132 0 C132 48.18 132 96.36 132 146 C88.44 146 44.88 146 0 146 C0 97.82 0 49.64 0 0 Z " fill="#FDFCFC" transform="translate(0,0)"/>
<path d="M0 0 C1.10214844 0.01160156 1.10214844 0.01160156 2.2265625 0.0234375 C5.24043966 0.8673231 6.41342171 2.20253417 8.375 4.625 C8.86706543 7.42372131 8.86706543 7.42372131 8.85742188 10.68774414 C8.86422974 11.91324478 8.8710376 13.13874542 8.87805176 14.40138245 C8.87237686 15.05401125 8.86670197 15.70664005 8.8608551 16.37904549 C8.84352435 18.43695109 8.85113928 20.49345973 8.8651123 22.55137634 C8.89470433 27.66713903 8.88165592 32.7826333 8.86993408 37.8984375 C8.86166936 42.21573646 8.86993488 46.53242468 8.89906311 50.84963799 C8.90606959 52.85843071 8.88932238 54.86726201 8.87194824 56.87599182 C8.91654279 65.04810847 9.24267543 74.49267543 15.375 80.625 C15.375 81.615 15.375 82.605 15.375 83.625 C15.9525 83.893125 16.53 84.16125 17.125 84.4375 C19.375 85.625 19.375 85.625 21.1875 87.125 C26.39840485 90.6981919 32.55834588 91.04101122 38.6875 91.0625 C39.43080566 91.06564209 40.17411133 91.06878418 40.93994141 91.07202148 C47.3997323 90.93214136 51.92984667 89.07058458 57.375 85.625 C58.365 85.295 59.355 84.965 60.375 84.625 C61.38416033 82.85908113 61.38416033 82.85908113 62.375 80.625 C63.035 79.738125 63.695 78.85125 64.375 77.9375 C68.39435351 71.28044575 68.67987305 63.83958969 68.7890625 56.21484375 C68.80842865 55.36193253 68.8277948 54.5090213 68.8477478 53.63026428 C68.90690102 50.94110706 68.95366838 48.2519055 69 45.5625 C69.03823911 43.72459206 69.07729417 41.8867009 69.1171875 40.04882812 C69.2125485 35.5743572 69.29681253 31.09980262 69.375 26.625 C70.035 26.625 70.695 26.625 71.375 26.625 C71.601875 26.026875 71.82875 25.42875 72.0625 24.8125 C73.80851142 21.90248097 75.24877729 20.9449607 78.375 19.625 C84.80357143 20.05357143 84.80357143 20.05357143 86.375 21.625 C86.47870804 23.16776808 86.51351716 24.71523944 86.52026367 26.26147461 C86.52664352 27.25018051 86.53302338 28.23888641 86.53959656 29.2575531 C86.54070938 30.33658401 86.5418222 31.41561493 86.54296875 32.52734375 C86.54796135 34.18764366 86.54796135 34.18764366 86.55305481 35.88148499 C86.55813232 38.2345437 86.56046288 40.58760965 86.56030273 42.94067383 C86.56247174 46.51591199 86.58057009 50.09083286 86.59960938 53.66601562 C86.60254674 55.95312395 86.60452924 58.24023373 86.60546875 60.52734375 C86.61265427 61.58815659 86.61983978 62.64896942 86.62724304 63.7419281 C86.6075038 70.26734714 85.9204921 76.28250165 84.375 82.625 C83.715 82.625 83.055 82.625 82.375 82.625 C81.715 84.605 81.055 86.585 80.375 88.625 C79.715 88.625 79.055 88.625 78.375 88.625 C78.21 89.305625 78.045 89.98625 77.875 90.6875 C75.65688789 95.03130288 72.14884352 97.6201661 68.375 100.625 C67.67117187 101.18960938 66.96734375 101.75421875 66.2421875 102.3359375 C64.375 103.625 64.375 103.625 62.375 103.625 C61.88 105.11 61.88 105.11 61.375 106.625 C54.17341664 110.19639746 45.52825583 109.93804989 37.6875 110 C36.71409668 110.01377686 35.74069336 110.02755371 34.73779297 110.04174805 C28.41361712 110.00146325 23.22829407 109.00070382 17.375 106.625 C16.364375 106.233125 15.35375 105.84125 14.3125 105.4375 C13.673125 105.169375 13.03375 104.90125 12.375 104.625 C12.375 103.965 12.375 103.305 12.375 102.625 C11.3540625 102.3465625 11.3540625 102.3465625 10.3125 102.0625 C0.59487545 97.30706671 -4.65003542 87.12483558 -8.609375 77.58984375 C-10.33670181 72.54737818 -10.75501424 67.6533841 -10.83374023 62.34765625 C-10.85303085 61.12618896 -10.87232147 59.90472168 -10.89219666 58.64624023 C-10.95017614 53.10175197 -10.99943067 47.5574031 -11.0300293 42.01269531 C-11.04787909 39.08712192 -11.08277458 36.16250579 -11.13256836 33.23730469 C-11.19285412 29.69004118 -11.22351269 26.14366805 -11.23320198 22.59591675 C-11.24586673 20.59830832 -11.28788167 18.60095518 -11.33042908 16.60375977 C-11.3074957 6.50741232 -11.3074957 6.50741232 -7.73706055 2.79931641 C-3.50031035 -0.16079164 -3.50031035 -0.16079164 0 0 Z " fill="#6D0C9C" transform="translate(27.625,25.375)"/>
<path d="M0 0 C1.98 0 3.96 0 6 0 C6 1.98 6 3.96 6 6 C4.35 6.33 2.7 6.66 1 7 C1 9.31 1 11.62 1 14 C3.64 14 6.28 14 9 14 C9 16.64 9 19.28 9 22 C7.02 22.66 5.04 23.32 3 24 C2.67 26.31 2.34 28.62 2 31 C3.98 31 5.96 31 8 31 C8 33.64 8 36.28 8 39 C5.36 39 2.72 39 0 39 C0 36.36 0 33.72 0 31 C-1.98 31 -3.96 31 -6 31 C-6 33.97 -6 36.94 -6 40 C-3.69 40 -1.38 40 1 40 C2.77179727 43.05894603 3.24597983 45.24775135 3.22705078 48.76855469 C3.22689972 49.70922791 3.22674866 50.64990112 3.22659302 51.61907959 C3.21627045 52.62650208 3.20594788 53.63392456 3.1953125 54.671875 C3.1924826 55.70942932 3.18965271 56.74698364 3.18673706 57.815979 C3.17554865 61.12743701 3.15044627 64.43862384 3.125 67.75 C3.11496848 69.99608984 3.10584293 72.24218393 3.09765625 74.48828125 C3.0756137 79.99227991 3.04214932 85.49612058 3 91 C2.67 91 2.34 91 2 91 C1.67 75.82 1.34 60.64 1 45 C-0.65 45 -2.3 45 -4 45 C-4 44.34 -4 43.68 -4 43 C-5.31618998 43.78551657 -6.62785228 44.5786237 -7.9375 45.375 C-8.66839844 45.81585938 -9.39929688 46.25671875 -10.15234375 46.7109375 C-12.13772272 47.8773984 -12.13772272 47.8773984 -13 50 C-13.66 50 -14.32 50 -15 50 C-15 43.4 -15 36.8 -15 30 C-12.69 30 -10.38 30 -8 30 C-8 27.69 -8 25.38 -8 23 C-10.31 23 -12.62 23 -15 23 C-15 20.03 -15 17.06 -15 14 C-12.69 14 -10.38 14 -8 14 C-8 11.69 -8 9.38 -8 7 C-5.36 6.67 -2.72 6.34 0 6 C0 4.02 0 2.04 0 0 Z " fill="#ECC0B8" transform="translate(112,2)"/>
<path d="M0 0 C1.10214844 0.01160156 1.10214844 0.01160156 2.2265625 0.0234375 C5.20727789 0.85803781 6.4087253 2.26056624 8.375 4.625 C8.85601807 7.00421143 8.85601807 7.00421143 8.82910156 9.66894531 C8.82864838 11.17004852 8.82864838 11.17004852 8.82818604 12.70147705 C8.80754089 13.77452087 8.78689575 14.8475647 8.765625 15.953125 C8.75996521 17.05726746 8.75430542 18.16140991 8.74847412 19.29901123 C8.72608768 22.82478226 8.67588496 26.34953624 8.625 29.875 C8.60493803 32.26561032 8.58668674 34.65623658 8.5703125 37.046875 C8.52621543 42.90659687 8.45927998 48.76572578 8.375 54.625 C8.045 54.625 7.715 54.625 7.375 54.625 C7.25125 53.490625 7.1275 52.35625 7 51.1875 C6.79375 50.011875 6.5875 48.83625 6.375 47.625 C5.715 47.295 5.055 46.965 4.375 46.625 C4.25 38.875 4.25 38.875 5.375 36.625 C5.19682689 34.40971436 4.93086364 32.20129134 4.625 30 C4.53428223 29.34572021 4.44356445 28.69144043 4.35009766 28.01733398 C3.27347101 20.50853043 1.84164273 13.06576746 0.375 5.625 C-0.615 5.955 -1.605 6.285 -2.625 6.625 C-2.625 18.175 -2.625 29.725 -2.625 41.625 C-2.955 41.625 -3.285 41.625 -3.625 41.625 C-3.625 39.645 -3.625 37.665 -3.625 35.625 C-4.285 35.625 -4.945 35.625 -5.625 35.625 C-6.285 33.315 -6.945 31.005 -7.625 28.625 C-8.285 28.625 -8.945 28.625 -9.625 28.625 C-9.625 41.825 -9.625 55.025 -9.625 68.625 C-9.955 68.625 -10.285 68.625 -10.625 68.625 C-10.76427298 60.64496328 -10.87075645 52.66543768 -10.93587303 44.68448448 C-10.96713278 40.97818324 -11.00950297 37.27271587 -11.07763672 33.56689453 C-11.14302752 29.98769617 -11.17874632 26.40929765 -11.19426346 22.82954788 C-11.20531511 21.46674639 -11.2268979 20.10398671 -11.25938034 18.74152756 C-11.50269196 8.10911015 -11.50269196 8.10911015 -9.334198 4.44235229 C-6.53494992 1.53555413 -4.07927305 -0.1873871 0 0 Z " fill="#F08E3B" transform="translate(27.625,25.375)"/>
<path d="M0 0 C2.31 0 4.62 0 7 0 C7 3.3 7 6.6 7 10 C5.02 10.33 3.04 10.66 1 11 C1.33 11.66 1.66 12.32 2 13 C2.08527628 15.03232634 2.10716135 17.06747006 2.09765625 19.1015625 C2.09443359 20.31328125 2.09121094 21.525 2.08789062 22.7734375 C2.07951172 24.04445313 2.07113281 25.31546875 2.0625 26.625 C2.05798828 27.90375 2.05347656 29.1825 2.04882812 30.5 C2.03701203 33.66671292 2.02053815 36.83333356 2 40 C2.66 40 3.32 40 4 40 C4 47.92 4 55.84 4 64 C3.34 64 2.68 64 2 64 C2.12375 65.85625 2.12375 65.85625 2.25 67.75 C2.2737948 71.10506698 2.19641677 71.75447904 0 74.5 C-0.66 74.995 -1.32 75.49 -2 76 C-2.16325909 72.08178179 -2.0690037 69.24779605 -1.0065918 65.43261719 C0.32272798 60.31824938 0.26924366 55.33531806 0.23046875 50.078125 C0.23001053 49.05571716 0.22955231 48.03330933 0.2290802 46.97991943 C0.22607409 44.8318159 0.2182374 42.68371422 0.20581055 40.53564453 C0.18747961 37.24634094 0.18530166 33.95731826 0.18554688 30.66796875 C0.18063366 28.5755184 0.1748062 26.48306995 0.16796875 24.390625 C0.16685593 23.40829895 0.1657431 22.4259729 0.16459656 21.41387939 C0.15821671 20.49902771 0.15183685 19.58417603 0.14526367 18.64160156 C0.14145187 17.8396637 0.13764008 17.03772583 0.13371277 16.21148682 C0.00139367 14.02305002 -0.39623075 12.10295533 -1 10 C-3.31 10 -5.62 10 -8 10 C-8 7.03 -8 4.06 -8 1 C-6.02 1 -4.04 1 -2 1 C-2 3.64 -2 6.28 -2 9 C0.64 9 3.28 9 6 9 C6 6.36 6 3.72 6 1 C4.02 1 2.04 1 0 1 C0 0.67 0 0.34 0 0 Z " fill="#FBE9FB" transform="translate(114,32)"/>
<path d="M0 0 C2.67953841 2.67953841 2.97047356 5.39665745 4 9 C4.66 9.66 5.32 10.32 6 11 C7.79487999 19.04309427 7.09830084 27.80826375 7 36 C6.67 36 6.34 36 6 36 C6 34.02 6 32.04 6 30 C5.34 30 4.68 30 4 30 C3.34 27.69 2.68 25.38 2 23 C1.34 23 0.68 23 0 23 C0 36.2 0 49.4 0 63 C-0.33 63 -0.66 63 -1 63 C-1.02312737 54.93347826 -1.04091709 46.86697028 -1.05181217 38.80042362 C-1.05704014 35.05516963 -1.06413622 31.30993824 -1.07543945 27.56469727 C-1.08627141 23.95318313 -1.09227749 20.34169079 -1.09487724 16.73016167 C-1.09673094 15.34939671 -1.10035049 13.968633 -1.10573006 12.58787727 C-1.11294447 10.66024048 -1.11340809 8.73258193 -1.11352539 6.80493164 C-1.115746 5.70572891 -1.11796661 4.60652618 -1.12025452 3.47401428 C-1 1 -1 1 0 0 Z " fill="#B5518F" transform="translate(18,31)"/>
<path d="M0 0 C2.64 0 5.28 0 8 0 C8 2.97 8 5.94 8 9 C10.31 9 12.62 9 15 9 C15 9.99 15 10.98 15 12 C13.68 12.33 12.36 12.66 11 13 C11 12.34 11 11.68 11 11 C9.68381002 11.78551657 8.37214772 12.5786237 7.0625 13.375 C6.33160156 13.81585938 5.60070312 14.25671875 4.84765625 14.7109375 C2.86227728 15.8773984 2.86227728 15.8773984 2 18 C1.34 18 0.68 18 0 18 C0 12.06 0 6.12 0 0 Z " fill="#CC4470" transform="translate(97,34)"/>
<path d="M0 0 C1.21236328 0.02707031 1.21236328 0.02707031 2.44921875 0.0546875 C3.37154297 0.08949219 3.37154297 0.08949219 4.3125 0.125 C4.3125 0.785 4.3125 1.445 4.3125 2.125 C5.3025 2.455 6.2925 2.785 7.3125 3.125 C8 5.1875 8 5.1875 8.3125 7.125 C7.3225 6.465 6.3325 5.805 5.3125 5.125 C5.3125 4.465 5.3125 3.805 5.3125 3.125 C3.91566918 3.15847525 2.51969363 3.22831784 1.125 3.3125 C0.34769531 3.34730469 -0.42960937 3.38210937 -1.23046875 3.41796875 C-4.80161267 4.44559522 -6.89565636 5.90801549 -8.6875 9.125 C-9.46493229 13.65304173 -9.40854656 18.15297859 -9.39453125 22.73828125 C-9.40765471 24.07637271 -9.42296094 25.4144444 -9.44035339 26.75248718 C-9.48014242 30.26244594 -9.49038971 33.77188579 -9.49438477 37.28204346 C-9.503728 40.86852702 -9.54114878 44.45470717 -9.57617188 48.04101562 C-9.64068471 55.06896728 -9.67397636 62.09677027 -9.6875 69.125 C-10.0175 69.125 -10.3475 69.125 -10.6875 69.125 C-10.71066198 61.22340359 -10.72843479 53.32182135 -10.73931217 45.42019939 C-10.74453255 41.75123076 -10.75161489 38.08228535 -10.76293945 34.41333008 C-10.77379832 30.87312911 -10.77978322 27.33295048 -10.78237724 23.79273415 C-10.78512633 21.78358345 -10.7929336 19.77444175 -10.80079651 17.76530457 C-10.80087204 16.54426529 -10.80094757 15.32322601 -10.80102539 14.06518555 C-10.803246 12.98818893 -10.80546661 11.91119232 -10.80775452 10.80155945 C-10.6875 8.125 -10.6875 8.125 -9.6875 5.125 C-9.0275 5.125 -8.3675 5.125 -7.6875 5.125 C-7.6875 4.135 -7.6875 3.145 -7.6875 2.125 C-4.48369983 -0.01086678 -3.66810033 -0.10632175 0 0 Z " fill="#FEDFF6" transform="translate(26.6875,22.875)"/>
<path d="M0 0 C0.99 0 1.98 0 3 0 C6.29707485 4.01368348 6.35355457 7.4192676 6.29296875 12.48828125 C6.28872391 13.19147995 6.28447906 13.89467865 6.28010559 14.6191864 C6.2634006 16.85069131 6.22576614 19.08127113 6.1875 21.3125 C6.17244248 22.8313671 6.15875594 24.35024846 6.14648438 25.86914062 C6.11352473 29.57972434 6.06180016 33.28977178 6 37 C5.67 37 5.34 37 5 37 C4.87625 35.865625 4.7525 34.73125 4.625 33.5625 C4.41875 32.386875 4.2125 31.21125 4 30 C3.34 29.67 2.68 29.34 2 29 C1.875 21.25 1.875 21.25 3 19 C2.77315208 16.51630614 2.48440544 14.08949447 2.125 11.625 C2.03347656 10.95210937 1.94195313 10.27921875 1.84765625 9.5859375 C1.39399066 6.33999215 0.89040846 3.15690272 0 0 Z " fill="#D25569" transform="translate(30,43)"/>
<path d="M0 0 C2.31 0 4.62 0 7 0 C7.33 1.98 7.66 3.96 8 6 C10.97 6.495 10.97 6.495 14 7 C14 9.64 14 12.28 14 15 C11.36 15 8.72 15 6 15 C6 12.03 6 9.06 6 6 C4.02 6 2.04 6 0 6 C0 4.02 0 2.04 0 0 Z " fill="#E99BA8" transform="translate(106,26)"/>
<path d="M0 0 C0.33 0 0.66 0 1 0 C1 3.73831158 0.89224411 5.94755246 -1.56640625 8.84765625 C-9.06145987 15.52133413 -15.77593396 20.19290691 -26 20 C-25.34 19.34 -24.68 18.68 -24 18 C-23.34 18.33 -22.68 18.66 -22 19 C-22 18.34 -22 17.68 -22 17 C-21.401875 16.938125 -20.80375 16.87625 -20.1875 16.8125 C-17.13084514 15.67717105 -16.53365974 13.78847225 -15 11 C-14.34 10.67 -13.68 10.34 -13 10 C-12.67 10.33 -12.34 10.66 -12 11 C-11.01 11.33 -10.02 11.66 -9 12 C-8.34 10.68 -7.68 9.36 -7 8 C-6.01 8 -5.02 8 -4 8 C-3.67 6.68 -3.34 5.36 -3 4 C-2.34 4 -1.68 4 -1 4 C-0.67 2.68 -0.34 1.36 0 0 Z " fill="#47159F" transform="translate(104,112)"/>
<path d="M0 0 C1.98 0 3.96 0 6 0 C6 1.98 6 3.96 6 6 C4.35 6.33 2.7 6.66 1 7 C1.020625 7.969375 1.04125 8.93875 1.0625 9.9375 C1 13 1 13 0 14 C-2.33297433 14.04092937 -4.66705225 14.04241723 -7 14 C-7 11.69 -7 9.38 -7 7 C-3.535 6.505 -3.535 6.505 0 6 C0 4.02 0 2.04 0 0 Z " fill="#F5D697" transform="translate(112,2)"/>
<path d="M0 0 C1.125 4.75 1.125 4.75 0 7 C0.66 7.33 1.32 7.66 2 8 C1.85769192 9.41702513 1.71099254 10.8336096 1.5625 12.25 C1.48128906 13.03890625 1.40007812 13.8278125 1.31640625 14.640625 C1.02365007 16.82364639 0.57935581 18.8773182 0 21 C-1.32 21 -2.64 21 -4 21 C-4 14.4 -4 7.8 -4 1 C-2 0 -2 0 0 0 Z " fill="#951E8F" transform="translate(101,51)"/>
<path d="M0 0 C2.31 0 4.62 0 7 0 C7 3.3 7 6.6 7 10 C4.69 10 2.38 10 0 10 C-0.33 10.99 -0.66 11.98 -1 13 C-1 12.01 -1 11.02 -1 10 C-3.31 10 -5.62 10 -8 10 C-8 7.03 -8 4.06 -8 1 C-6.02 1 -4.04 1 -2 1 C-2 3.64 -2 6.28 -2 9 C0.64 9 3.28 9 6 9 C6 6.36 6 3.72 6 1 C4.02 1 2.04 1 0 1 C0 0.67 0 0.34 0 0 Z " fill="#FED7E1" transform="translate(114,32)"/>
<path d="M0 0 C0.66 0.33 1.32 0.66 2 1 C-1.21528829 4.58274981 -3.161903 6.47696249 -8 7 C-8.99 7.495 -8.99 7.495 -10 8 C-11.4118737 8.20330981 -12.82998853 8.36476081 -14.25 8.5 C-17.86354566 8.86777605 -21.42299843 9.35797408 -25 10 C-25.33 9.01 -25.66 8.02 -26 7 C-27.65 7.33 -29.3 7.66 -31 8 C-31.33 7.01 -31.66 6.02 -32 5 C-31.410979 5.01571045 -30.82195801 5.0314209 -30.21508789 5.04760742 C-27.49765973 5.110692 -24.78038639 5.14921991 -22.0625 5.1875 C-21.13630859 5.21263672 -20.21011719 5.23777344 -19.25585938 5.26367188 C-13.06530626 5.32883559 -7.64506117 4.68705222 -2 2 C-1.34 1.34 -0.68 0.68 0 0 Z " fill="#4408A3" transform="translate(87,112)"/>
<path d="M0 0 C2.97 0 5.94 0 9 0 C10.42041821 2.84083641 10.31452272 4.85477278 10 8 C8 10.1875 8 10.1875 6 12 C6 12.99 6 13.98 6 15 C6.66 15.33 7.32 15.66 8 16 C6.02 16 4.04 16 2 16 C2 13.69 2 11.38 2 9 C3.65 8.67 5.3 8.34 7 8 C7 6.02 7 4.04 7 2 C5.02 2 3.04 2 1 2 C1 3.98 1 5.96 1 8 C0.67 8 0.34 8 0 8 C0 5.36 0 2.72 0 0 Z " fill="#FDF2D5" transform="translate(111,0)"/>
<path d="M0 0 C0.66 0 1.32 0 2 0 C2.66 2.31 3.32 4.62 4 7 C4.66 7 5.32 7 6 7 C5.58882123 12.96209223 4.74729595 16.31588007 1 21 C0.67 21 0.34 21 0 21 C0 14.07 0 7.14 0 0 Z " fill="#8C1183" transform="translate(18,54)"/>
<path d="M0 0 C2.67953841 2.67953841 2.97047356 5.39665745 4 9 C4.66 9.66 5.32 10.32 6 11 C6.4140625 13.3828125 6.4140625 13.3828125 6.625 16.125 C6.69976563 17.03507812 6.77453125 17.94515625 6.8515625 18.8828125 C6.90054687 19.58148438 6.94953125 20.28015625 7 21 C6.01 21 5.02 21 4 21 C4 19.68 4 18.36 4 17 C3.01 17 2.02 17 1 17 C-0.18681726 13.43954823 -0.09689832 10.56191663 -0.0625 6.8125 C-0.05347656 5.54019531 -0.04445313 4.26789062 -0.03515625 2.95703125 C-0.02355469 1.98121094 -0.01195313 1.00539062 0 0 Z " fill="#CF395F" transform="translate(18,31)"/>
<path d="M0 0 C-1.0625 1.5625 -1.0625 1.5625 -3 3 C-6.6875 2.6875 -6.6875 2.6875 -10 2 C-10 2.99 -10 3.98 -10 5 C-15.28 5 -20.56 5 -26 5 C-26 4.67 -26 4.34 -26 4 C-24.35 3.67 -22.7 3.34 -21 3 C-22.65 2.67 -24.3 2.34 -26 2 C-26 1.67 -26 1.34 -26 1 C-22.60426181 0.83135681 -19.20839586 0.66543535 -15.8125 0.5 C-14.37293945 0.42845703 -14.37293945 0.42845703 -12.90429688 0.35546875 C-11.50727539 0.28779297 -11.50727539 0.28779297 -10.08203125 0.21875 C-9.22843018 0.17685547 -8.3748291 0.13496094 -7.49536133 0.09179688 C-4.99442835 -0.00020496 -2.50237795 -0.0156766 0 0 Z " fill="#F6EBF9" transform="translate(82,134)"/>
<path d="M0 0 C1.00926479 4.15626368 1.10239579 8.04365094 1.0625 12.3125 C1.05347656 13.56675781 1.04445313 14.82101563 1.03515625 16.11328125 C1.01775391 17.54220703 1.01775391 17.54220703 1 19 C0.731875 18.401875 0.46375 17.80375 0.1875 17.1875 C-0.8679993 14.96843161 -0.8679993 14.96843161 -2.5703125 13.53125 C-4.42048007 11.54964976 -4.58125819 10.1703801 -4.875 7.5 C-4.97554687 6.7265625 -5.07609375 5.953125 -5.1796875 5.15625 C-5 3 -5 3 -3.6328125 1.21875 C-2 0 -2 0 0 0 Z " fill="#EB5A38" transform="translate(24,27)"/>
<path d="M0 0 C3.25 -0.25 3.25 -0.25 7 0 C9.25 2 9.25 2 11 4 C11.99 4 12.98 4 14 4 C14 4.99 14 5.98 14 7 C15.98 7.66 17.96 8.32 20 9 C16.30962722 10.37095624 14.29116165 9.60010967 10.75 8.0625 C9.85796875 7.68222656 8.9659375 7.30195313 8.046875 6.91015625 C7.03367187 6.45962891 7.03367187 6.45962891 6 6 C6 5.34 6 4.68 6 4 C5.195625 3.71125 4.39125 3.4225 3.5625 3.125 C1 2 1 2 0 0 Z " fill="#562AA1" transform="translate(34,124)"/>
<path d="M0 0 C0.33 0 0.66 0 1 0 C1.08755672 4.35403865 1.14057969 8.70784877 1.1875 13.0625 C1.21263672 14.29162109 1.23777344 15.52074219 1.26367188 16.78710938 C1.31631874 23.29777171 1.23999169 28.27686507 -2 34 C-3.32 34 -4.64 34 -6 34 C-4.99664392 31.49160981 -3.99426125 28.98649705 -2.9375 26.5 C-0.8214769 20.85727173 -0.70855949 15.14636517 -0.4375 9.1875 C-0.39431641 8.30384766 -0.35113281 7.42019531 -0.30664062 6.50976562 C-0.20108464 4.34000377 -0.10008929 2.1700209 0 0 Z " fill="#6C2E96" transform="translate(97,72)"/>
<path d="M0 0 C3.05740973 1.13237398 4.57096393 2.59276689 6.5 5.125 C7.7375 6.548125 7.7375 6.548125 9 8 C10.32 8 11.64 8 13 8 C13.33 9.32 13.66 10.64 14 12 C12.3125 12.6875 12.3125 12.6875 10 13 C5.43586786 11.0105065 2.83678175 7.97149445 0 4 C0 2.68 0 1.36 0 0 Z " fill="#410A9E" transform="translate(26,112)"/>
<path d="M0 0 C0.33 0 0.66 0 1 0 C0.67 3.96 0.34 7.92 0 12 C-0.66 12 -1.32 12 -2 12 C-2.103125 12.639375 -2.20625 13.27875 -2.3125 13.9375 C-2.539375 14.618125 -2.76625 15.29875 -3 16 C-3.99 16.33 -4.98 16.66 -6 17 C-5.62964591 10.21017493 -3.59523599 5.73115109 0 0 Z " fill="#5D22A2" transform="translate(112,96)"/>
<path d="M0 0 C1 2 1 2 0.4375 3.875 C-3.01008471 8.97142957 -8.24577008 10.65852309 -14 12 C-16.82062267 12.21545728 -19.61095151 12.1922372 -22.4375 12.125 C-23.16904297 12.11597656 -23.90058594 12.10695313 -24.65429688 12.09765625 C-26.43634298 12.07436153 -28.21821759 12.0385019 -30 12 C-30 11.67 -30 11.34 -30 11 C-28.54980469 10.97873047 -28.54980469 10.97873047 -27.0703125 10.95703125 C-18.43146586 10.64055865 -12.55506894 9.47260081 -5 5 C-4.01 4.67 -3.02 4.34 -2 4 C-0.79117904 1.99983534 -0.79117904 1.99983534 0 0 Z " fill="#774CB4" transform="translate(90,106)"/>
<path d="M0 0 C1.9375 0.75 1.9375 0.75 4 2 C5.02710204 4.93595769 5.11746749 7.67507161 5.09765625 10.765625 C5.09443359 11.65507813 5.09121094 12.54453125 5.08789062 13.4609375 C5.07951172 14.38132812 5.07113281 15.30171875 5.0625 16.25 C5.05798828 17.18585937 5.05347656 18.12171875 5.04882812 19.0859375 C5.03706918 21.39069041 5.02063426 23.69531227 5 26 C4.34 26.33 3.68 26.66 3 27 C2.98018066 26.32420898 2.96036133 25.64841797 2.93994141 24.95214844 C2.84456762 21.88437956 2.73493835 18.81728002 2.625 15.75 C2.57859375 14.15478516 2.57859375 14.15478516 2.53125 12.52734375 C2.49257813 11.50253906 2.45390625 10.47773437 2.4140625 9.421875 C2.3826416 8.47924805 2.3512207 7.53662109 2.31884766 6.56542969 C1.99399023 3.95164571 1.32323838 2.25646966 0 0 Z " fill="#FEF7EB" transform="translate(34,27)"/>
<path d="M0 0 C1.21236328 0.02707031 1.21236328 0.02707031 2.44921875 0.0546875 C3.37154297 0.08949219 3.37154297 0.08949219 4.3125 0.125 C4.3125 0.785 4.3125 1.445 4.3125 2.125 C5.3025 2.455 6.2925 2.785 7.3125 3.125 C8 5.1875 8 5.1875 8.3125 7.125 C7.3225 6.465 6.3325 5.805 5.3125 5.125 C5.3125 4.465 5.3125 3.805 5.3125 3.125 C-0.55198454 3.3805331 -4.34507571 3.78257571 -8.6875 8.125 C-8.375 5.25 -8.375 5.25 -7.6875 2.125 C-4.48369983 -0.01086678 -3.66810033 -0.10632175 0 0 Z " fill="#F8D7BB" transform="translate(26.6875,22.875)"/>
<path d="M0 0 C-6.31634391 2.46230356 -11.67120801 4.13591504 -18.51953125 4.09765625 C-19.54111328 4.09443359 -20.56269531 4.09121094 -21.61523438 4.08789062 C-22.67033203 4.07951172 -23.72542969 4.07113281 -24.8125 4.0625 C-25.88693359 4.05798828 -26.96136719 4.05347656 -28.06835938 4.04882812 C-30.71229683 4.03707729 -33.35611952 4.02064787 -36 4 C-36 3.67 -36 3.34 -36 3 C-34.329375 2.94392578 -34.329375 2.94392578 -32.625 2.88671875 C-23.89247862 2.53056433 -15.50335348 1.79373014 -6.953125 -0.0715332 C-2.18571461 -1.0928573 -2.18571461 -1.0928573 0 0 Z " fill="#6740A7" transform="translate(90,131)"/>
<path d="M0 0 C2.0625 1.625 2.0625 1.625 4 4 C3.6875 6.9375 3.6875 6.9375 3 10 C3.21329449 12.74239143 3.21329449 12.74239143 4 15 C4.66 15.33 5.32 15.66 6 16 C4.68 16 3.36 16 2 16 C-0.67401588 10.65196824 -1.41257648 6.98235897 -1 1 C-0.67 0.67 -0.34 0.34 0 0 Z " fill="#54119E" transform="translate(20,93)"/>
<path d="M0 0 C2.31 0 4.62 0 7 0 C7 2.31 7 4.62 7 7 C4.69 7 2.38 7 0 7 C0 4.69 0 2.38 0 0 Z " fill="#E5A347" transform="translate(97,17)"/>
<path d="M0 0 C0.66 0.99 1.32 1.98 2 3 C1.01 4.98 0.02 6.96 -1 9 C-1.66 9 -2.32 9 -3 9 C-3.433125 10.2065625 -3.433125 10.2065625 -3.875 11.4375 C-5 14 -5 14 -7 15 C-7.99 14.34 -8.98 13.68 -10 13 C-9.57847656 12.51789063 -9.15695313 12.03578125 -8.72265625 11.5390625 C-8.17480469 10.90742187 -7.62695312 10.27578125 -7.0625 9.625 C-6.51722656 8.99851562 -5.97195312 8.37203125 -5.41015625 7.7265625 C-3.93041376 6.04367666 -3.93041376 6.04367666 -3 4 C-2.34 4 -1.68 4 -1 4 C-0.67 2.68 -0.34 1.36 0 0 Z " fill="#EBDAF8" transform="translate(109,110)"/>
<path d="M0 0 C2.56780471 3.8415976 2.22688882 7.8139175 2.125 12.25 C2.11597656 12.99507812 2.10695313 13.74015625 2.09765625 14.5078125 C2.07418358 16.33868059 2.03831525 18.16938238 2 20 C1.67 20 1.34 20 1 20 C0.87625 18.865625 0.7525 17.73125 0.625 16.5625 C0.41875 15.386875 0.2125 14.21125 0 13 C-0.66 12.67 -1.32 12.34 -2 12 C-2.28571429 3.42857143 -2.28571429 3.42857143 0 0 Z " fill="#AE347D" transform="translate(34,60)"/>
<path d="M0 0 C1.98 0 3.96 0 6 0 C6 2.31 6 4.62 6 7 C4.02 7 2.04 7 0 7 C0 4.69 0 2.38 0 0 Z " fill="#FCFAEC" transform="translate(106,17)"/>
<path d="M0 0 C1.98 0 3.96 0 6 0 C6 2.31 6 4.62 6 7 C5.01 7.495 5.01 7.495 4 8 C4 7.34 4 6.68 4 6 C2.68 6.33 1.36 6.66 0 7 C0 4.69 0 2.38 0 0 Z " fill="#D63E61" transform="translate(98,35)"/>
<path d="M0 0 C0.66 0.33 1.32 0.66 2 1 C2 6.61 2 12.22 2 18 C1.34 18 0.68 18 0 18 C-1.03863773 11.76817361 -0.83288874 6.25307239 0 0 Z " fill="#A72675" transform="translate(112,46)"/>
<path d="M0 0 C1.98 0 3.96 0 6 0 C6 1.98 6 3.96 6 6 C4.02 6 2.04 6 0 6 C0 4.02 0 2.04 0 0 Z " fill="#C8375F" transform="translate(113,34)"/>
<path d="M0 0 C1.98 0 3.96 0 6 0 C6 1.98 6 3.96 6 6 C4.02 6 2.04 6 0 6 C0 4.02 0 2.04 0 0 Z " fill="#E07453" transform="translate(106,26)"/>
<path d="M0 0 C1.65 0 3.3 0 5 0 C5 2.31 5 4.62 5 7 C3.35 7 1.7 7 0 7 C0 4.69 0 2.38 0 0 Z " fill="#FCF1F2" transform="translate(106,34)"/>
<path d="M0 0 C4.27495594 4.42236821 5.51298598 9.19839226 7 15 C6.34 15 5.68 15 5 15 C4.15415002 13.44424022 3.32381601 11.8800388 2.5 10.3125 C2.0359375 9.44238281 1.571875 8.57226562 1.09375 7.67578125 C-0.04818792 4.88211171 -0.21504208 2.98370887 0 0 Z " fill="#5A1995" transform="translate(35,94)"/>
<path d="M0 0 C-1.16723633 1.49536133 -1.16723633 1.49536133 -3 3 C-5.4519043 3.2487793 -5.4519043 3.2487793 -8.32421875 3.07421875 C-9.35224609 3.01943359 -10.38027344 2.96464844 -11.43945312 2.90820312 C-13.04723633 2.79895508 -13.04723633 2.79895508 -14.6875 2.6875 C-15.77095703 2.62626953 -16.85441406 2.56503906 -17.97070312 2.50195312 C-20.64828378 2.3486115 -23.32415282 2.18075343 -26 2 C-26 1.67 -26 1.34 -26 1 C-22.60426181 0.83135681 -19.20839586 0.66543535 -15.8125 0.5 C-14.37293945 0.42845703 -14.37293945 0.42845703 -12.90429688 0.35546875 C-11.50727539 0.28779297 -11.50727539 0.28779297 -10.08203125 0.21875 C-9.22843018 0.17685547 -8.3748291 0.13496094 -7.49536133 0.09179688 C-4.99442835 -0.00020496 -2.50237795 -0.0156766 0 0 Z " fill="#C6ADE7" transform="translate(82,134)"/>
<path d="M0 0 C0.33 0 0.66 0 1 0 C2.61050328 10.15317287 2.61050328 10.15317287 0.0625 13.6875 C-0.618125 14.120625 -1.29875 14.55375 -2 15 C-2.22577402 9.5814234 -1.46670113 5.22512279 0 0 Z " fill="#E8D3F5" transform="translate(114,93)"/>
<path d="M0 0 C0.33 0 0.66 0 1 0 C1 1.65 1 3.3 1 5 C-1.31 5 -3.62 5 -6 5 C-6 7.64 -6 10.28 -6 13 C-6.66 13 -7.32 13 -8 13 C-8 10.36 -8 7.72 -8 5 C-7.05125 4.731875 -6.1025 4.46375 -5.125 4.1875 C-1.74732727 3.25013412 -1.74732727 3.25013412 0 0 Z " fill="#FEF8E1" transform="translate(103,11)"/>
<path d="M0 0 C1.65 0 3.3 0 5 0 C5 0.66 5 1.32 5 2 C5.77085938 2.04898438 6.54171875 2.09796875 7.3359375 2.1484375 C8.84027344 2.26058594 8.84027344 2.26058594 10.375 2.375 C11.87160156 2.47941406 11.87160156 2.47941406 13.3984375 2.5859375 C16 3 16 3 18 5 C11.79351012 5.33249053 7.68674354 4.54922986 2 2 C1.34 1.34 0.68 0.68 0 0 Z " fill="#E3CDF6" transform="translate(48,112)"/>
<path d="M0 0 C0.99 0 1.98 0 3 0 C5.75 2.75 5.75 2.75 8 6 C7.8125 8.375 7.8125 8.375 7 10 C3.62985672 7.79197509 1.83752377 5.58317135 0 2 C0 1.34 0 0.68 0 0 Z " fill="#E7D1F7" transform="translate(40,102)"/>
<path d="M0 0 C0.33 0 0.66 0 1 0 C1 4.62 1 9.24 1 14 C0.34 12.68 -0.32 11.36 -1 10 C-1.556875 9.505 -2.11375 9.01 -2.6875 8.5 C-3.120625 8.005 -3.55375 7.51 -4 7 C-3.6875 4.8125 -3.6875 4.8125 -3 3 C-2.34 3.33 -1.68 3.66 -1 4 C-0.67 2.68 -0.34 1.36 0 0 Z " fill="#EB4E45" transform="translate(24,32)"/>
<path d="M0 0 C0.33 0 0.66 0 1 0 C0.7589852 6.14587738 0.7589852 6.14587738 -1.40234375 8.578125 C-2.88046971 9.78844931 -4.43647953 10.90220903 -6 12 C-6 10.68 -6 9.36 -6 8 C-5.34 8 -4.68 8 -4 8 C-3.67 6.68 -3.34 5.36 -3 4 C-2.34 4 -1.68 4 -1 4 C-0.67 2.68 -0.34 1.36 0 0 Z " fill="#52209C" transform="translate(104,112)"/>
<path d="M0 0 C1.98 0 3.96 0 6 0 C6 1.65 6 3.3 6 5 C4.02 5 2.04 5 0 5 C0 3.35 0 1.7 0 0 Z " fill="#E49E38" transform="translate(113,18)"/>
<path d="M0 0 C1.98 0 3.96 0 6 0 C6 1.65 6 3.3 6 5 C4.02 5 2.04 5 0 5 C0 3.35 0 1.7 0 0 Z " fill="#E8A842" transform="translate(106,10)"/>
<path d="M0 0 C1.98 0 3.96 0 6 0 C6 1.65 6 3.3 6 5 C4.02 5 2.04 5 0 5 C0 3.35 0 1.7 0 0 Z " fill="#E3A444" transform="translate(112,2)"/>
<path d="M0 0 C2.35953094 2.35953094 2.49141413 3.77895617 3 7 C3.66 7 4.32 7 5 7 C5 7.99 5 8.98 5 10 C4.01 10.33 3.02 10.66 2 11 C1.34 10.67 0.68 10.34 0 10 C0 6.7 0 3.4 0 0 Z " fill="#A71083" transform="translate(19,54)"/>
<path d="M0 0 C1.98 0.99 3.96 1.98 6 3 C6 3.66 6 4.32 6 5 C7.65 5.33 9.3 5.66 11 6 C7.67465243 7.10844919 5.37817425 6.84454356 2 6 C1.34 4.02 0.68 2.04 0 0 Z " fill="#EAD6F9" transform="translate(34,125)"/>
<path d="M0 0 C1.39195915 4.17587745 -0.17676781 6.13474776 -2 10 C-3.32 10 -4.64 10 -6 10 C-4.6302836 6.00499382 -2.74277578 3.19990508 0 0 Z " fill="#5E25A7" transform="translate(97,96)"/>
<path d="M0 0 C0.33 0.66 0.66 1.32 1 2 C1.66 2 2.32 2 3 2 C3.66 2.66 4.32 3.32 5 4 C5.33 4 5.66 4 6 4 C6 5.65 6 7.3 6 9 C4.68 8.67 3.36 8.34 2 8 C2 7.01 2 6.02 2 5 C1.34 5 0.68 5 0 5 C0 3.35 0 1.7 0 0 Z " fill="#F57623" transform="translate(29,32)"/>
<path d="M0 0 C0.33 0 0.66 0 1 0 C1.28875 0.94875 1.5775 1.8975 1.875 2.875 C2.76825109 6.05211578 2.76825109 6.05211578 5 8 C3.625 10 3.625 10 2 12 C1.34 12 0.68 12 0 12 C0 8.04 0 4.08 0 0 Z " fill="#B73A75" transform="translate(97,40)"/>
<path d="M0 0 C0.99 0 1.98 0 3 0 C5 2 5 2 5.046875 3.91015625 C4.94890625 4.62042969 4.8509375 5.33070312 4.75 6.0625 C4.61851563 7.13177734 4.61851563 7.13177734 4.484375 8.22265625 C4.24460937 9.10244141 4.24460937 9.10244141 4 10 C3.01 10.495 3.01 10.495 2 11 C1.34 7.37 0.68 3.74 0 0 Z " fill="#E95743" transform="translate(30,43)"/>
<path d="M0 0 C0.33 0.66 0.66 1.32 1 2 C1.66 2.33 2.32 2.66 3 3 C-3.28571429 7.42857143 -3.28571429 7.42857143 -7 8 C-6.67 7.01 -6.34 6.02 -6 5 C-4.68 5 -3.36 5 -2 5 C-2.33 4.01 -2.66 3.02 -3 2 C-2.01 1.34 -1.02 0.68 0 0 Z " fill="#EEDFFA" transform="translate(83,108)"/>
<path d="M0 0 C0.33 0 0.66 0 1 0 C2 4 3 8 4 12 C2.68 11.67 1.36 11.34 0 11 C-1.05404945 7.01803543 -0.84098656 4.01804691 0 0 Z " fill="#E0CAF0" transform="translate(17,94)"/>
<path d="M0 0 C4.95 0.33 9.9 0.66 15 1 C15 1.33 15 1.66 15 2 C10.38 2.33 5.76 2.66 1 3 C0.67 2.01 0.34 1.02 0 0 Z " fill="#4F1BA0" transform="translate(55,117)"/>
<path d="M0 0 C0.99 0.33 1.98 0.66 3 1 C3 4.63 3 8.26 3 12 C2.67 12 2.34 12 2 12 C2 10.02 2 8.04 2 6 C1.34 6 0.68 6 0 6 C0 4.02 0 2.04 0 0 Z " fill="#B61A7E" transform="translate(22,55)"/>
<path d="M0 0 C0.66 0 1.32 0 2 0 C2.33 1.65 2.66 3.3 3 5 C2.01 5.66 1.02 6.32 0 7 C-1 6 -1 6 -1.125 3.5 C-1 1 -1 1 0 0 Z " fill="#B01C7F" transform="translate(99,51)"/>
<path d="M0 0 C0.33 0 0.66 0 1 0 C1.28875 1.11375 1.5775 2.2275 1.875 3.375 C2.69241329 7.00291092 2.69241329 7.00291092 5 9 C4.67 9.99 4.34 10.98 4 12 C3.34 11.67 2.68 11.34 2 11 C2 10.34 2 9.68 2 9 C1.34 9 0.68 9 0 9 C0 6.03 0 3.06 0 0 Z " fill="#DF4052" transform="translate(19,33)"/>
<path d="M0 0 C0.66 0.33 1.32 0.66 2 1 C0.875 3.5 0.875 3.5 -1 6 C-4.1875 6.3125 -4.1875 6.3125 -7 6 C-4.74259377 3.66475218 -2.7194239 1.81294927 0 0 Z " fill="#D3BFEF" transform="translate(97,124)"/>
<path d="M0 0 C0.45375 0.474375 0.9075 0.94875 1.375 1.4375 C2.93258204 3.09027808 2.93258204 3.09027808 5 4 C4.67 5.65 4.34 7.3 4 9 C3.67 8.01 3.34 7.02 3 6 C2.01 6 1.02 6 0 6 C0 4.02 0 2.04 0 0 Z " fill="#F16A34" transform="translate(30,37)"/>
<path d="M0 0 C1.98 0 3.96 0 6 0 C6 0.66 6 1.32 6 2 C2.52674819 3.1577506 -0.36067448 3.06866652 -4 3 C-3.34 2.34 -2.68 1.68 -2 1 C-1.34 1.33 -0.68 1.66 0 2 C0 1.34 0 0.68 0 0 Z " fill="#3F0D99" transform="translate(82,129)"/>
<path d="M0 0 C4 4.75 4 4.75 4 7 C4.99 7.33 5.98 7.66 7 8 C6.34 8.66 5.68 9.32 5 10 C0 4.5 0 4.5 0 0 Z " fill="#4D1F94" transform="translate(26,112)"/>
<path d="M0 0 C2.4375 0.8125 2.4375 0.8125 5 2 C5.33 2.99 5.66 3.98 6 5 C4.02 5 2.04 5 0 5 C0 3.35 0 1.7 0 0 Z " fill="#47109E" transform="translate(48,113)"/>
<path d="M0 0 C2.64 0 5.28 0 8 0 C8 0.99 8 1.98 8 3 C6.68 3.33 5.36 3.66 4 4 C4 3.34 4 2.68 4 2 C2.68 1.34 1.36 0.68 0 0 Z " fill="#C53365" transform="translate(104,43)"/>
<path d="M0 0 C1.65 0 3.3 0 5 0 C4.67 1.32 4.34 2.64 4 4 C2.68 4 1.36 4 0 4 C0 2.68 0 1.36 0 0 Z " fill="#F9771F" transform="translate(24,27)"/>
<path d="M0 0 C0.66 0.33 1.32 0.66 2 1 C1.67 2.65 1.34 4.3 1 6 C0.01 6 -0.98 6 -2 6 C-2 4.35 -2 2.7 -2 1 C-1.34 0.67 -0.68 0.34 0 0 Z " fill="#A60E90" transform="translate(101,58)"/>
<path d="M0 0 C0.66 1.32 1.32 2.64 2 4 C1.34 4.66 0.68 5.32 0 6 C-0.99 6 -1.98 6 -3 6 C-2.42655063 3.13275314 -2.1385485 2.1385485 0 0 Z " fill="#4505B3" transform="translate(90,122)"/>
</svg>
